<svg width="49" height="48" viewBox="0 0 49 48" fill="none" xmlns="http://www.w3.org/2000/svg">
<path fill-rule="evenodd" clip-rule="evenodd" d="M23.75 45C31.6201 45 38 38.6201 38 30.75C38 29.4608 37.8288 27.8895 37.5079 26.1632C36.5419 26.6965 35.4314 27 34.25 27C30.5221 27 27.5 23.9779 27.5 20.25C27.5 16.8462 30.0193 14.0309 33.295 13.567C30.7686 8.50004 27.4215 4.5 23.75 4.5C20.4646 4.5 17.439 7.70297 15.0287 12.0073C17.7986 12.1521 20 14.444 20 17.25C20 20.1495 17.6495 22.5 14.75 22.5C13.3952 22.5 12.1603 21.9868 11.229 21.1443C10.1265 24.7856 9.5 28.2838 9.5 30.75C9.5 38.6201 15.8799 45 23.75 45ZM11.5678 20.0672C12.3464 20.946 13.4835 21.5 14.75 21.5C17.0972 21.5 19 19.5972 19 17.25C19 14.9028 17.0972 13 14.75 13C14.6625 13 14.5756 13.0026 14.4894 13.0079C13.3438 15.2153 12.3555 17.6533 11.5678 20.0672ZM33.7553 14.521C30.8113 14.7718 28.5 17.241 28.5 20.25C28.5 23.4256 31.0744 26 34.25 26C35.3707 26 36.4165 25.6794 37.3007 25.1249C36.5869 21.7685 35.3572 17.9513 33.7553 14.521ZM19.25 39.5C22.4256 39.5 25 36.9256 25 33.75C25 30.5744 22.4256 28 19.25 28C16.0744 28 13.5 30.5744 13.5 33.75C13.5 36.9256 16.0744 39.5 19.25 39.5ZM19.25 40.5C22.9779 40.5 26 37.4779 26 33.75C26 30.0221 22.9779 27 19.25 27C15.5221 27 12.5 30.0221 12.5 33.75C12.5 37.4779 15.5221 40.5 19.25 40.5Z" fill="#E112CD"/>
</svg>
