<svg width="44" height="41" viewBox="0 0 44 41" fill="none" xmlns="http://www.w3.org/2000/svg">
<path d="M26.7174 0.5L24.6503 1.45554L21.9962 12.488L27.4617 2.44767L26.7176 0.5H26.7174ZM4.09777 2.68844C5.12662 9.5875 8.45025 15.3701 13.1018 20.2417C14.372 19.384 15.6546 18.5035 16.941 17.6049C14.9498 15.1556 13.5393 12.565 13.0232 9.868C9.94832 7.49242 6.9467 5.08168 4.09786 2.68853L4.09777 2.68844ZM39.1899 2.69131C36.4114 5.02618 33.4871 7.37826 30.4917 9.69986C29.5631 14.9218 25.2713 19.7497 19.8673 23.9239C13.9867 28.4662 6.69569 32.2575 0.519711 34.8106L0.519531 37.7501C8.93601 34.6894 18.0939 30.4528 25.4027 24.6049C32.5057 18.9217 37.8346 11.7762 39.1899 2.6914V2.69131ZM17.966 3.5292L17.2021 6.02324L20.8588 12.5746L20.241 4.92476L17.966 3.52911V3.5292ZM28.2732 11.4035C18.8156 18.5998 8.82789 25.3603 0.519711 30.1168V32.9948C6.44378 30.4917 13.3336 26.8514 18.8395 22.5984C23.3178 19.1394 26.8221 15.289 28.2733 11.4035H28.2732ZM15.2811 11.5968C15.9417 13.2907 16.9914 14.9756 18.3368 16.624C18.9686 16.1775 19.6 15.7246 20.2325 15.2705C18.5749 14.0639 16.9196 12.8386 15.2811 11.5967V11.5968ZM30.4329 22.3884C29.5726 23.2378 28.6733 24.0552 27.7452 24.8459C32.6805 28.1901 38.2807 31.0472 43.1947 33.1096V30.3217C39.2529 28.0809 34.9173 25.3781 30.4329 22.3884ZM26.3972 25.9582C25.3502 26.794 24.2676 27.595 23.1591 28.3655C29.4794 32.4128 36.5796 35.519 43.1946 37.9043V34.9254C37.905 32.7533 31.7719 29.6593 26.3971 25.9582H26.3972ZM21.1284 30.6241L16.9775 37.6409L17.6796 39.7565L20.1736 38.7393L21.1284 30.624V30.6241ZM22.5524 30.6969L27.1694 40.0788L30.4471 41.0007L30.1295 38.1341L22.5525 30.6969H22.5524Z" fill="#FF0000"/>
</svg>
