<svg width="19" height="16" viewBox="0 0 19 16" fill="none" xmlns="http://www.w3.org/2000/svg">
<path d="M2.15418 14.9055C1.26814 14.8165 1.07067 14.0976 1.13803 13.1375C1.50272 13.5426 1.86885 13.9443 2.41877 14.0378C2.38896 13.7198 2.43041 13.3983 2.57773 13.072C2.78927 13.3959 3.16389 13.7531 3.73154 14.1494L4.15107 13.0002C4.54518 13.6156 5.01486 14.1961 6.07064 14.6935L6.54354 13.2339C6.85335 13.5614 7.14421 13.8943 7.85635 14.0988L8.83157 12.6166C9.71555 13.0184 10.5044 12.9291 11.1602 12.1688C11.7104 11.4394 12.2531 10.6824 12.6906 9.56573L12.3695 8.34754C12.3476 7.82449 13.0045 7.53121 13.4305 8.06002L14.4571 10.067C14.6149 10.5229 14.6418 11.0107 14.3556 11.5781L12.5643 14.364C12.2734 14.5905 11.9033 14.7739 11.1386 14.737C9.82058 14.5884 8.52704 14.4681 7.51324 14.6962C6.34516 14.8352 5.17823 15.0013 4.01389 15.2317C3.36947 15.4333 2.73991 15.446 2.15406 14.9054L2.15418 14.9055ZM4.14054 11.757C3.82811 12.2989 3.6697 12.8341 3.5816 13.3658C2.79713 12.9309 2.63547 12.4671 2.5579 12C2.26382 12.4418 2.13666 12.8755 2.06894 13.3066C1.43059 12.9991 1.22089 12.5615 1.05251 12.1116L0.780607 12.5945L0.261007 10.6898C0.0917943 10.2778 0.0638174 9.85897 0.474014 9.42047L1.80983 8.04534L2.99107 8.04631C3.89022 7.33036 4.93813 6.68253 6.12663 6.09639L8.47367 3.30577C8.99002 2.84226 9.52273 2.75263 10.0592 2.74075L12.6839 2.62137C12.9205 2.70146 13.1568 2.78897 13.3998 3.02689C14.893 4.40162 15.7819 5.80404 15.5704 7.25594L14.4075 8.8971L13.9924 7.84355C13.4789 7.07549 12.8582 7.02873 12.2886 7.23599C11.8881 7.38174 11.8248 7.79955 11.8239 8.1133L12.1363 9.51099C11.5208 10.7795 10.8872 11.6398 10.2369 12.1222C9.72989 12.3513 9.2039 12.1552 8.67178 11.808C8.32199 12.4353 7.9652 12.9122 7.60579 13.3117C7.05849 13.042 6.66753 12.5957 6.33558 12.0855C6.10418 12.8357 5.95861 13.4909 5.83665 14.1194C4.9212 13.5049 4.2966 12.7458 4.14054 11.7572V11.757ZM1.96804 10.0161L3.01678 9.06945L2.61771 8.5741L1.96132 8.90367L1.42165 9.99769L1.96804 10.0161ZM7.79193 8.51453L9.3375 8.34664L10.2597 7.77477C10.5569 7.50267 10.6871 7.23088 10.7585 6.95967L10.0797 5.25355C9.9487 5.06571 9.77305 5.02045 9.53413 5.17021L8.10548 6.60273L6.8195 6.93793C6.67194 7.04033 6.61801 7.16503 6.69614 7.32375L7.07745 8.17608C7.23585 8.42406 7.47187 8.51039 7.79189 8.51453H7.79193ZM15.6675 8.06805L16.1352 7.40258C16.1996 6.71704 16.1185 6.15235 15.9231 5.61856C16.7682 5.38125 17.8494 5.79115 18.6532 6.67171C18.7961 6.88489 18.7208 7.16207 18.4364 7.24333C17.3202 7.49962 16.6107 8.1028 15.6675 8.06797V8.06805ZM14.0709 2.78804C14.991 2.47546 15.9211 2.38345 16.854 2.36739C17.0165 2.36524 17.2578 2.38077 17.2094 2.66597C16.8354 3.769 16.1982 4.23657 15.5313 4.74125C15.1943 4.03211 14.673 3.39409 14.0709 2.78804H14.0709ZM12.9687 0.435306C13.4568 0.303105 14.0581 0.297833 13.988 0.67347L12.9299 2.06016L10.3352 2.17809C11.1798 1.32993 11.8799 0.732799 12.9687 0.435346V0.435306Z" fill="#7777A3"/>
</svg>
