<svg width="32" height="21" viewBox="0 0 32 21" fill="none" xmlns="http://www.w3.org/2000/svg">
<path fill-rule="evenodd" clip-rule="evenodd" d="M7.31066 6.04128C11.1379 4.25999 16.8038 1.96332 21.9357 1.21064C22.7788 3.17898 23.6222 4.82722 24.3293 6.09424C23.7574 4.65176 23.024 2.57686 22.365 0.0214947C13.4809 -0.037603 2.36108 4.14312 2.36108 4.14312C4.80943 4.30211 6.34804 5.07571 7.31066 6.04128Z" fill="#C02CBC"/>
<path d="M9.20041 15.8752C9.20041 15.8752 9.20041 9.66931 1.7886 10.319C1.7886 10.319 12.1456 4.49988 20.9358 3.21064C23.0308 8.1019 25.1283 11.0166 25.1283 11.0166C27.0557 13.0905 30.6459 14.1012 30.6459 14.1012L29.8946 16.8752C29.8946 16.8752 21.6614 15.1614 18.2791 19.4645C15.9843 13.6535 9.20041 15.8752 9.20041 15.8752Z" fill="white"/>
</svg>
