<svg width="33" height="33" viewBox="0 0 33 33" fill="none" xmlns="http://www.w3.org/2000/svg">
<path fill-rule="evenodd" clip-rule="evenodd" d="M16.6849 0C7.8185 0 0.630859 7.18764 0.630859 16.0541C0.630859 24.9205 7.8185 32.1081 16.6849 32.1081C25.5513 32.1081 32.739 24.9205 32.739 16.0541C32.739 7.18764 25.5513 0 16.6849 0ZM23.3038 6.95669H10.6012C9.53 6.95669 8.65789 7.81826 8.65789 8.88585V21.5472C8.65789 22.6147 9.53 23.4763 10.6012 23.4763H21.351L20.8486 21.7438L22.062 22.8582L23.209 23.9071L25.2471 25.6864V8.88585C25.2471 7.81826 24.375 6.95669 23.3038 6.95669ZM19.6447 19.1872C19.6447 19.1872 19.3034 18.7845 19.019 18.4287C20.2608 18.0822 20.7348 17.3142 20.7348 17.3142C20.3462 17.5671 19.9765 17.745 19.6447 17.8668C19.1707 18.0634 18.7157 18.1945 18.2701 18.2694C17.3601 18.438 16.5259 18.3912 15.8149 18.2601C15.2746 18.1571 14.8101 18.0072 14.4214 17.8574C14.2034 17.7731 13.9664 17.6701 13.7294 17.539C13.7152 17.5296 13.701 17.5226 13.6868 17.5156L13.6868 17.5156C13.6726 17.5086 13.6583 17.5015 13.6441 17.4922C13.6252 17.4828 13.6157 17.4734 13.6062 17.4641C13.4356 17.3704 13.3408 17.3049 13.3408 17.3049C13.3408 17.3049 13.7958 18.0541 14.9997 18.4099C14.7153 18.7658 14.3646 19.1872 14.3646 19.1872C12.2696 19.1217 11.4733 17.7637 11.4733 17.7637C11.4733 14.7483 12.8384 12.304 12.8384 12.304C14.2034 11.2926 15.5021 11.3207 15.5021 11.3207L15.5969 11.4331C13.8906 11.9201 13.1038 12.6599 13.1038 12.6599C13.1038 12.6599 13.3123 12.5475 13.6631 12.3883C14.6774 11.9482 15.4832 11.8264 15.8149 11.7983L15.8362 11.7948C15.884 11.7867 15.9264 11.7796 15.9761 11.7796C16.5543 11.7047 17.2084 11.6859 17.891 11.7609C18.7915 11.8639 19.7584 12.1261 20.7443 12.6599C20.7443 12.6599 19.9954 11.9575 18.3839 11.4706L18.5166 11.3207C18.5166 11.3207 19.8153 11.2926 21.1804 12.304C21.1804 12.304 22.5454 14.7483 22.5454 17.7637C22.5454 17.7637 21.7396 19.1217 19.6447 19.1872ZM15.5037 14.9837C14.9676 14.9837 14.5444 15.4658 14.5444 16.0539C14.5444 16.6421 14.977 17.1242 15.5037 17.1242C16.0397 17.1242 16.463 16.6421 16.463 16.0539C16.4724 15.4658 16.0397 14.9837 15.5037 14.9837ZM18.9364 14.9837C18.4004 14.9837 17.9771 15.4658 17.9771 16.0539C17.9771 16.6421 18.4098 17.1242 18.9364 17.1242C19.4725 17.1242 19.8957 16.6421 19.8957 16.0539C19.8957 15.4658 19.4725 14.9837 18.9364 14.9837Z" fill="#7777A3"/>
</svg>
