<svg width="19" height="27" viewBox="0 0 19 27" fill="none" xmlns="http://www.w3.org/2000/svg">
<path fill-rule="evenodd" clip-rule="evenodd" d="M9.5 27C14.7467 27 19 22.7467 19 17.5C19 16.6405 18.8859 15.593 18.6719 14.4421C18.028 14.7977 17.2876 15 16.5 15C14.0147 15 12 12.9853 12 10.5C12 8.23083 13.6796 6.35395 15.8634 6.04469C14.1791 2.6667 11.9476 0 9.5 0C7.30976 0 5.29264 2.13531 3.68579 5.00485C5.53241 5.10142 7 6.62933 7 8.5C7 10.433 5.433 12 3.5 12C2.59682 12 1.77354 11.6579 1.15267 11.0962C0.417661 13.5237 0 15.8559 0 17.5C0 22.7467 4.25329 27 9.5 27ZM1.5029 10.0041C1.95919 10.609 2.68393 11 3.5 11C4.88071 11 6 9.88071 6 8.5C6 7.11929 4.88071 6 3.5 6C3.38003 6 3.26204 6.00845 3.14658 6.02479C2.5167 7.28542 1.96306 8.64582 1.5029 10.0041ZM16.3191 7.0046C14.4702 7.09876 13 8.62769 13 10.5C13 12.433 14.567 14 16.5 14C17.2252 14 17.8988 13.7795 18.4576 13.4018C17.9968 11.3574 17.2606 9.08696 16.3191 7.0046ZM6.5 23C8.433 23 10 21.433 10 19.5C10 17.567 8.433 16 6.5 16C4.567 16 3 17.567 3 19.5C3 21.433 4.567 23 6.5 23ZM6.5 24C8.98528 24 11 21.9853 11 19.5C11 17.0147 8.98528 15 6.5 15C4.01472 15 2 17.0147 2 19.5C2 21.9853 4.01472 24 6.5 24Z" fill="#7777A3"/>
</svg>
