<svg width="38" height="42" viewBox="0 0 38 42" fill="none" xmlns="http://www.w3.org/2000/svg">
<path d="M14.1734 0C13.4492 0 12.9334 0.451068 12.6088 0.9001C12.2844 1.34913 12.0818 1.82934 12.0818 2.38925C12.0818 2.94926 12.2705 3.4408 12.577 3.93323C12.8836 4.42566 13.3727 4.98274 14.1735 4.98274H14.1559L14.7351 4.99532V15.8006C10.2163 21.6344 1.43887 33.0072 1.43887 33.0072L1.40375 33.0526L1.37535 33.1024C0.929814 33.8825 0.5 34.9669 0.5 36.2584C0.5 39.4052 3.07539 41.9999 6.16333 42H32.3366C35.4163 42 38 39.439 38 36.2584C38 34.8151 37.3792 33.7232 37.0218 33.1009L36.9926 33.0498L23.7652 16.1083V4.99479C23.9921 4.98894 24.0327 4.98292 24.3187 4.98274H24.3264C25.1273 4.98274 25.6165 4.42548 25.923 3.93323C26.0223 3.77346 26.1038 3.61289 26.176 3.45099L26.2983 3.32726H26.2272C26.3453 3.02861 26.4182 2.72147 26.4182 2.38916C26.4182 1.82943 26.2157 1.34904 25.8912 0.9001C25.5667 0.451068 25.0508 0 24.3264 0H14.1733H14.1734ZM14.1734 1.65513H24.3267C24.3184 1.65513 24.4402 1.69259 24.5744 1.87831C24.7086 2.06395 24.7858 2.36472 24.7858 2.38934C24.7858 2.41379 24.6947 2.80525 24.5425 3.04969C24.3909 3.29325 24.2436 3.32708 24.3263 3.32735C23.7291 3.32735 23.2677 3.34479 23.0769 3.35259V3.33426H14.6074V3.33691L14.1824 3.32761H14.1735C14.2584 3.32761 14.11 3.29422 13.9577 3.04978C13.8057 2.80534 13.7145 2.41387 13.7145 2.38934C13.7145 2.3649 13.7917 2.06413 13.9259 1.87831C14.0601 1.69277 14.1819 1.6553 14.1736 1.6553L14.1734 1.65513ZM16.3675 4.98929H22.1329V11.638H22.1291V16.2874L22.133 16.2926V16.6842L35.636 33.979C35.9774 34.5758 36.3675 35.3163 36.3675 36.2584C36.3675 38.531 34.5251 40.3449 32.3368 40.3449H6.16359C3.98368 40.3447 2.13277 38.4834 2.13277 36.2584C2.13277 35.9434 2.17034 35.6417 2.23289 35.3565L2.23769 35.3639C2.30356 35.0562 2.39887 34.7751 2.50711 34.5214L2.49191 34.5428C2.57726 34.3373 2.671 34.1446 2.76884 33.9702C2.8272 33.8946 11.7479 22.336 16.1934 16.5975L16.3677 16.3725V16.2703C16.3697 16.2676 16.3738 16.2625 16.3757 16.2598V11.638H16.3677V4.98929H16.3675ZM18.0081 11.638V16.8295L17.8343 17.0542C14.8555 20.908 4.24279 34.7562 4.16574 34.8567C3.95782 35.2288 3.77436 35.7149 3.77436 36.2575C3.77436 37.6045 4.8987 38.7356 6.21155 38.7356H32.332C33.6532 38.7356 34.7691 37.6386 34.7691 36.2575C34.7691 35.7015 34.5399 35.259 34.3146 34.8639L20.4962 16.8556V11.6379H18.0082L18.0081 11.638ZM17.6545 22.242C19.4904 22.242 20.996 23.7685 20.996 25.6297C20.996 27.4911 19.4904 29.0176 17.6545 29.0176C15.8186 29.0176 14.3128 27.4911 14.3128 25.6299C14.3128 23.7686 15.8186 22.242 17.6545 22.242ZM17.6545 23.8973C16.7011 23.8973 15.9455 24.6632 15.9455 25.6297C15.9455 26.5964 16.7012 27.3624 17.6545 27.3624C18.6079 27.3624 19.3635 26.5965 19.3635 25.6298C19.3635 24.6631 18.6079 23.8971 17.6545 23.8971V23.8973ZM12.3873 28.7523C14.2231 28.7523 15.729 30.2789 15.729 32.1401C15.729 34.0014 14.2231 35.5279 12.3873 35.5279C10.5514 35.5279 9.04553 34.0012 9.04553 32.14C9.04553 30.2788 10.5514 28.7522 12.3873 28.7522V28.7523ZM20.8283 29.7008C22.983 29.7008 24.7471 31.4896 24.7471 33.6739C24.7471 35.8584 22.9829 37.6468 20.8283 37.6468C18.6737 37.6468 16.9093 35.8583 16.9093 33.6739C16.9093 31.4896 18.6737 29.7008 20.8283 29.7008ZM12.3873 30.4076C11.4339 30.4076 10.6783 31.1737 10.6783 32.1401C10.6783 33.1067 11.434 33.8727 12.3873 33.8727C13.3407 33.8727 14.0963 33.1068 14.0963 32.1401C14.0963 31.1736 13.3406 30.4076 12.3873 30.4076ZM20.8283 31.3561C19.5562 31.3561 18.5421 32.3842 18.5421 33.6739C18.5421 34.9637 19.5562 35.9917 20.8283 35.9917C22.1006 35.9917 23.1145 34.9639 23.1145 33.6739C23.1145 32.3842 22.1005 31.3561 20.8283 31.3561Z" fill="#06C190"/>
</svg>
