<svg width="32" height="32" viewBox="0 0 32 32" fill="none" xmlns="http://www.w3.org/2000/svg">
<path d="M9.28644 3.00005C8.76427 5.54548 8.99331 7.74046 9.67175 9.62363C11.2881 11.5671 13.482 12.9281 15.7606 14.244C14.989 13.4378 14.2575 12.6404 13.6221 11.8251H17.3386C17.6096 11.4859 17.8618 11.145 18.0934 10.8022H12.8866C12.6346 10.4171 12.4078 10.026 12.2114 9.62527C12.1077 9.41359 12.0114 9.19939 11.9233 8.98207H19.0869C19.226 8.64887 19.3433 8.31041 19.4372 7.95909H11.5793C11.4033 7.29345 11.3079 6.58363 11.3134 5.80029H19.6824C19.6735 5.4747 19.6464 5.13421 19.598 4.77556H11.3755C11.4367 4.22306 11.5431 3.63335 11.7034 3H9.28644V3.00005ZM20.2938 3.00005C20.805 5.01647 20.7838 6.58226 20.4197 7.95914H20.4117C20.2479 8.68938 19.996 9.36723 19.6793 10.0135C18.8789 11.6466 17.6312 13.0898 16.2606 14.5314C16.9103 14.9039 17.5633 15.2762 18.2096 15.6604C19.5716 14.228 20.8999 12.6943 21.8288 10.7987C22.8714 8.67099 23.3487 6.09409 22.7141 3H20.2938V3.00005ZM13.7209 16.8937C12.6846 18.0548 11.7107 19.3211 10.9727 20.818C9.88606 23.0219 9.38753 25.7424 9.98225 28.9999H12.307C12.0504 27.7874 11.9768 26.6545 12.0507 25.606C12.074 25.1972 12.121 24.8065 12.1908 24.4308H12.1987C12.2638 24.0786 12.3463 23.7376 12.4439 23.4077C12.4452 23.4039 12.4459 23.3998 12.4471 23.3959C12.6012 22.8775 12.7934 22.3864 13.0172 21.9247C13.7794 20.352 14.8443 19.1143 15.896 17.9936C15.1772 17.6247 14.4466 17.2642 13.7209 16.8937H13.7209ZM16.146 18.1237C16.8816 18.9202 17.5666 19.7219 18.1426 20.5631H14.9931C14.7487 20.8906 14.5174 21.2307 14.3037 21.586H18.7749C18.8485 21.7201 18.9192 21.8564 18.9866 21.9932C19.2101 22.4468 19.4017 22.9156 19.5549 23.4078H13.4471C13.3358 23.7352 13.2429 24.0767 13.1683 24.4309H19.8082C19.9319 25.0973 19.9878 25.8109 19.9579 26.5897H12.9727C12.9797 26.9209 13.0022 27.2619 13.0427 27.6127H19.8736C19.819 28.054 19.7386 28.5157 19.6316 29H22.0168C22.5026 26.3386 22.2582 24.036 21.5598 22.0804C20.1105 20.3371 18.1828 19.1809 16.146 18.1238L16.146 18.1237Z" fill="#7777A3"/>
</svg>
