<svg width="45" height="45" viewBox="0 0 240 240" fill="none" xmlns="http://www.w3.org/2000/svg">
<path d="M167.81 36.5548C145.534 36.3718 123.213 35.5008 100.891 36.0508C75.0399 36.6928 54.8729 38.2508 39.6099 58.9228C35.6219 68.7768 33.6059 80.2818 32.6429 92.2908C32.4599 95.4538 32.2759 98.7078 32.0469 102.054C31.2219 122.45 32.5969 143.489 32.1389 160.172C34.2929 171.127 38.5099 180.981 46.3939 188.498C72.5199 213.386 125.688 205.64 160.522 204.265C177.252 198.169 191.185 193.127 198.656 174.014C204.569 158.98 203.606 139.821 204.019 123.688C204.798 90.5018 206.265 44.7138 167.81 36.5548Z" fill="#7777A3"/>
<path d="M157.588 48.379C202.093 54.108 189.031 118.598 187.793 149.857C187.105 167.045 184.035 180.337 166.297 186.295C142.967 194.133 108.591 191.52 84.8033 188.037C68.8983 185.745 56.4313 180.978 52.0313 164.478C45.0643 138.398 47.0353 103.105 50.0603 76.521C50.1523 76.017 50.2893 75.65 50.5183 75.329C50.9303 35.5459 134.441 45.4 157.588 48.379Z" fill="black"/>
<path d="M176.061 72.6273C176.153 61.6723 162.494 58.1893 155.16 64.9273C153.189 66.7603 152.272 69.5563 152.135 72.5813C152.868 76.4773 155.206 80.3273 158.231 82.5273C165.336 87.5233 175.969 80.8773 176.061 72.6273Z" fill="#7777A3"/>
<path d="M155.754 93.9391C140.079 70.1971 104.694 67.8591 85.6733 88.8971C72.7023 103.243 71.7853 127.123 81.5483 144.082C82.0983 144.265 82.6023 144.586 83.0613 145.136C98.9203 162.828 126.237 169.245 145.855 153.203C163.363 138.857 168.496 113.235 155.754 93.9391Z" fill="#7777A3"/>
<path d="M93.2825 126.484C98.8285 142.068 118.537 154.443 134.258 144.818C166.021 125.384 128.712 72.5826 102.54 96.0036C93.2825 101.458 89.6615 116.262 93.2825 126.484Z" fill="black"/>
</svg>
