<svg width="33" height="33" viewBox="0 0 33 33" fill="none" xmlns="http://www.w3.org/2000/svg">
<path fill-rule="evenodd" clip-rule="evenodd" d="M32.9226 16.0541C32.9226 24.9205 25.7349 32.1081 16.8685 32.1081C8.0021 32.1081 0.814453 24.9205 0.814453 16.0541C0.814453 7.18764 8.0021 0 16.8685 0C25.7349 0 32.9226 7.18764 32.9226 16.0541ZM8.43426 10.1903C8.63047 10.3713 8.73067 10.6371 8.70407 10.906V20.5886C8.76229 20.9379 8.65471 21.2947 8.41427 21.5497L6.1658 24.341V24.7091H12.5415V24.341L10.293 21.5497C10.0508 21.2951 9.93654 20.9407 9.9832 20.5886V12.2148L15.5794 24.7091H16.2289L21.0357 12.2148V22.1734C21.0357 22.4393 21.0357 22.4904 20.8658 22.6642L19.137 24.3819V24.75H27.5312V24.3819L25.8624 22.7051C25.7151 22.5902 25.642 22.4013 25.6725 22.2143V9.89379C25.642 9.70683 25.7151 9.51794 25.8624 9.40301L27.5712 7.72619V7.35811H21.6552L17.4381 18.1245L12.6414 7.35811H6.43562V7.72619L8.43426 10.1903Z" fill="#7777A3"/>
</svg>
