<svg width="32" height="32" viewBox="0 0 32 32" fill="none" xmlns="http://www.w3.org/2000/svg">
<g clip-path="url(#clip0)">
<path fill-rule="evenodd" clip-rule="evenodd" d="M5.54281 3.0001C5.45494 2.99966 5.36519 3.00073 5.27531 3.00198C4.08156 3.01973 2.71656 3.1981 1.08969 3.60948C4.67513 3.90635 6.99956 5.03673 8.35737 6.50985C6.85456 6.18922 5.26312 6.07173 3.6425 6.14673C-0.448125 6.33548 -4.67625 7.7641 -8 10.3067V32.3576L-4.57044 19.8342C-1.92906 13.4486 6.26625 11.0155 9.56038 12.4767C9.45787 12.7709 9.33431 13.0569 9.19119 13.3302L18.7891 15.256C19.1206 14.3963 19.3881 13.5302 19.6053 12.6583C19.5832 12.1875 19.4288 11.7277 19.1757 11.254C19.1026 11.9869 18.8006 12.6264 18.2558 13.3556C16.6299 13.5387 15.145 12.3941 14.9179 10.7637C14.6871 9.10654 15.8429 7.57673 17.5 7.34579C17.6554 7.32829 17.8088 7.31654 17.9609 7.31654C18.3164 7.32123 18.6599 7.38935 18.9803 7.50985C19.4328 8.52691 19.6182 9.31335 19.4824 10.1427C19.8494 9.75085 20.1164 9.34566 20.2597 8.89666C20.3886 7.72916 20.4624 6.55541 20.5058 5.37904C12.9046 6.5081 11.0839 3.02779 5.54281 3.0001ZM11.1522 6.02748V6.02354C11.1189 6.02466 11.0864 6.0236 11.0527 6.03529C10.5136 6.11004 10.1357 6.60948 10.2109 7.14854C10.2859 7.6876 10.7851 8.06341 11.3241 7.98841C11.8633 7.9136 12.2391 7.4161 12.1641 6.87704C12.0936 6.37166 11.6514 6.00885 11.1522 6.02748Z" fill="#7777A3"/>
<path fill-rule="evenodd" clip-rule="evenodd" d="M23.963 16.0001C24.0509 15.9997 24.1407 16.0007 24.2305 16.002C25.4243 16.0197 26.7893 16.1981 28.4162 16.6095C24.8307 16.9064 22.5063 18.0367 21.1485 19.5098C22.6513 19.1892 24.2427 19.0717 25.8634 19.1467C29.954 19.3355 34.1821 20.7641 37.5059 23.3067V45.3576L34.0763 32.8342C31.4349 26.4486 23.2396 24.0155 19.9455 25.4767C20.048 25.7709 20.1715 26.0569 20.3147 26.3302L10.7168 28.256C10.3852 27.3963 10.1177 26.5302 9.90055 25.6583C9.92267 25.1875 10.077 24.7277 10.3302 24.254C10.4033 24.9869 10.7053 25.6264 11.25 26.3556C12.876 26.5387 14.3609 25.3941 14.588 23.7637C14.8188 22.1065 13.663 20.5767 12.0059 20.3458C11.8505 20.3283 11.6971 20.3165 11.5449 20.3165C11.1894 20.3212 10.846 20.3893 10.5255 20.5098C10.073 21.5269 9.88761 22.3134 10.0235 23.1427C9.65649 22.7509 9.38949 22.3457 9.24617 21.8967C9.11724 20.7292 9.04349 19.5554 9.00005 18.379C16.6013 19.5081 18.422 16.0278 23.963 16.0001ZM18.3537 19.0275V19.0235C18.387 19.0247 18.4194 19.0236 18.4532 19.0353C18.9923 19.11 19.3701 19.6095 19.2949 20.1485C19.2199 20.6876 18.7208 21.0634 18.1818 20.9884C17.6426 20.9136 17.2668 20.4161 17.3418 19.877C17.4123 19.3717 17.8544 19.0089 18.3537 19.0275Z" fill="#7777A3"/>
</g>
<defs>
<clipPath id="clip0">
<rect width="32" height="32" fill="white"/>
</clipPath>
</defs>
</svg>
