<svg width="49" height="48" viewBox="0 0 49 48" fill="none" xmlns="http://www.w3.org/2000/svg">
<path d="M12.3289 18.1504L12.3316 18.1447L18.4992 16.5L15.7326 13.7334C18.0913 11.7174 21.153 10.5 24.4992 10.5C30.9239 10.5 36.3005 14.988 37.6646 21H42.2503C40.8221 12.4869 33.4182 6 24.4992 6C16.0724 6 8.99805 11.7907 7.03834 19.6099L12.3289 18.1504Z" fill="#EFFF31"/>
<path d="M33.6698 33.9071C31.262 36.137 28.0398 37.5 24.4992 37.5C18.0744 37.5 12.6979 33.012 11.3337 27H6.74805C8.17628 35.5131 15.5802 42 24.4992 42C33.0843 42 40.2656 35.9897 42.065 27.9474L38.0996 29.0413L30.761 30.9982L33.6698 33.9071Z" fill="#EFFF31"/>
</svg>
