<svg width="38" height="39" viewBox="0 0 254 285" fill="none" xmlns="http://www.w3.org/2000/svg">
<path d="M253.476 76.962L253.497 76.957L234.098 7.832C232.8 3.197 228.578 0 223.766 0H30.3799C25.5629 0 21.3299 3.213 20.0419 7.859L0.873933 76.989L0.889934 76.994C0.626934 77.933 0.481934 78.888 0.481934 79.853C0.481934 81.763 0.991934 83.673 2.00593 85.368L117.926 279.065C117.931 279.076 117.937 279.081 117.942 279.092L117.985 279.167C118.006 279.205 118.039 279.231 118.06 279.264C118.473 279.935 118.967 280.535 119.508 281.099C119.647 281.238 119.782 281.378 119.921 281.512C120.516 282.065 121.155 282.563 121.863 282.966C121.917 282.998 121.981 283.014 122.035 283.046C122.695 283.405 123.398 283.684 124.127 283.899C124.32 283.958 124.513 284.012 124.712 284.06C125.506 284.248 126.327 284.382 127.174 284.382C127.174 284.382 127.179 284.382 127.185 284.382C128.038 284.382 128.853 284.248 129.653 284.06C129.852 284.012 130.045 283.958 130.238 283.899C130.973 283.679 131.686 283.4 132.346 283.035C132.394 283.008 132.448 282.992 132.502 282.965C133.21 282.563 133.849 282.058 134.444 281.511C134.589 281.377 134.723 281.237 134.862 281.093C135.409 280.53 135.908 279.924 136.321 279.248C136.342 279.216 136.369 279.194 136.391 279.162L136.429 279.098C136.434 279.093 136.434 279.087 136.44 279.082L195.242 180.828C197.742 176.649 197.082 171.306 193.638 167.862C193.584 167.808 193.536 167.76 193.482 167.706C188.595 162.819 180.408 163.827 176.857 169.761L148.167 217.705L171.063 90.583H224.243L203.187 125.765C199.324 132.224 201.824 140.008 209.056 142.084C213.9 143.473 218.841 141.392 221.293 137.293L252.376 85.357C253.39 83.662 253.9 81.752 253.9 79.842C253.899 78.877 253.744 77.911 253.476 76.962ZM117.808 21.459H134.573L148.521 69.13H105.33L117.808 21.459ZM38.5449 21.459H95.6249L83.1469 69.129H25.3209L38.5449 21.459ZM30.1379 90.588H83.7149L106.386 218.005L30.1379 90.588ZM127.255 212.769L105.518 90.588H149.267L127.255 212.769ZM170.876 69.129L156.928 21.458H215.634L229.014 69.129H170.876Z" fill="#EFFF31"/>
</svg>
