<svg width="49" height="48" viewBox="0 0 49 48" fill="none" xmlns="http://www.w3.org/2000/svg">
<path d="M25.5611 33.6104L25.8729 35.8413H23.2972L23.609 33.6104C23.609 33.3691 23.7119 33.1376 23.8949 32.967C24.0779 32.7964 24.3262 32.7005 24.5851 32.7005C24.8439 32.7005 25.0922 32.7964 25.2752 32.967C25.4583 33.1376 25.5611 33.3691 25.5611 33.6104ZM28.3829 28.0268C27.8963 28.0268 27.4208 28.1613 27.0162 28.4132C26.6117 28.6652 26.2964 29.0234 26.1102 29.4424C25.924 29.8614 25.8753 30.3225 25.9702 30.7673C26.0652 31.2121 26.2994 31.6207 26.6435 31.9414C26.9875 32.2621 27.4258 32.4805 27.903 32.569C28.3801 32.6575 28.8747 32.6121 29.3242 32.4385C29.7737 32.2649 30.1579 31.971 30.4282 31.5939C30.6985 31.2168 30.8428 30.7735 30.8428 30.3199C30.8428 30.0187 30.7791 29.7205 30.6554 29.4422C30.5318 29.1639 30.3505 28.9111 30.122 28.6981C29.8935 28.4852 29.6222 28.3163 29.3236 28.2011C29.0251 28.0859 28.7051 28.0267 28.382 28.0268H28.3829ZM20.5112 28.0268C20.0247 28.0268 19.5491 28.1613 19.1446 28.4132C18.7401 28.6652 18.4248 29.0234 18.2386 29.4424C18.0524 29.8614 18.0037 30.3225 18.0986 30.7673C18.1935 31.2121 18.4278 31.6207 18.7718 31.9414C19.1159 32.2621 19.5542 32.4805 20.0313 32.569C20.5085 32.6575 21.0031 32.6121 21.4526 32.4385C21.9021 32.2649 22.2863 31.971 22.5566 31.5939C22.8268 31.2168 22.9711 30.7735 22.9711 30.3199C22.9711 30.0187 22.9075 29.7205 22.7838 29.4422C22.6601 29.1639 22.4788 28.9111 22.2503 28.6981C22.0218 28.4852 21.7506 28.3163 21.452 28.2011C21.1535 28.0859 20.8335 28.0267 20.5104 28.0268H20.5112ZM41 23.2073C41 30.8407 36.9791 37.4076 31.2113 40.3273C27.3756 42.5241 21.8079 42.5241 18.1873 40.5216C12.2068 37.7069 8 31.0156 8 23.2081C8 17.1324 10.5466 11.7323 14.4949 8.30893C14.4949 8.30893 10.9861 14.7499 15.2537 18.8029C14.2806 5.29521 29.3693 13.9057 25.0933 4.5C37.7504 10.9775 25.8554 12.662 32.1061 16.0209C32.1061 16.0209 37.627 19.6743 35.1413 8.89038C38.7227 12.3099 40.9992 17.4644 40.9992 23.2081L41 23.2073ZM35.2847 25.5292C35.0804 20.4384 30.7085 16.2331 25.2567 15.8848C25.0016 15.8685 24.7439 15.8607 24.4929 15.8607C21.6315 15.8601 18.8869 16.9191 16.863 18.8047C14.839 20.6903 13.7014 23.2481 13.7003 25.9155C13.7117 28.0341 14.4256 30.0976 15.7441 31.8233V33.7666C15.7508 34.4805 16.0583 35.1633 16.6002 35.6678C17.1422 36.1722 17.8751 36.4579 18.6409 36.4632H19.1629V37.7543C19.1688 38.4659 19.4765 39.1464 20.0188 39.6473C20.5611 40.1481 21.2939 40.4286 22.0572 40.4276H27.2088C27.9705 40.4282 28.7013 40.1471 29.2408 39.6459C29.7803 39.1447 30.0845 38.4644 30.0864 37.7543V36.4632H30.5351C31.3007 36.4577 32.0332 36.171 32.5736 35.6653C33.114 35.1596 33.4188 34.4757 33.4219 33.7619V31.5854C34.7225 29.805 35.3752 27.6823 35.2839 25.53L35.2847 25.5292Z" fill="#E8313E"/>
</svg>
