<svg width="33" height="33" viewBox="0 0 33 33" fill="none" xmlns="http://www.w3.org/2000/svg">
<path fill-rule="evenodd" clip-rule="evenodd" d="M32.5534 16.0541C32.5534 24.9204 25.3658 32.1081 16.4994 32.1081C7.63298 32.1081 0.445312 24.9204 0.445312 16.0541C0.445312 7.18767 7.63298 0 16.4994 0C25.3658 0 32.5534 7.18767 32.5534 16.0541ZM11.1956 14.5835C9.58743 15.2856 7.9351 16.007 6.4242 16.8393L6.42409 16.8393C5.6351 17.417 6.68384 17.8256 7.66763 18.2089C7.82402 18.2698 7.97878 18.3301 8.12424 18.3903C8.24528 18.4275 8.36838 18.4667 8.49311 18.5065C9.58725 18.8551 10.8073 19.2438 11.8695 18.6591C13.6144 17.6567 15.2612 16.4979 16.9066 15.3399C17.4457 14.9605 17.9846 14.5812 18.5269 14.2076C18.5523 14.1913 18.581 14.1727 18.6124 14.1523C19.0744 13.8529 20.113 13.1796 19.7288 14.1075C18.8201 15.1012 17.8468 15.9809 16.8682 16.8654C16.2086 17.4615 15.5467 18.0597 14.9005 18.6965C14.3377 19.1538 13.7533 20.0734 14.3835 20.7137C15.8336 21.7289 17.3063 22.7194 18.7783 23.7094C19.2591 24.0328 19.7399 24.3562 20.2197 24.6803C21.0306 25.3277 22.2978 24.804 22.4761 23.7924C22.5553 23.3275 22.6348 22.8626 22.7143 22.3977C23.1543 19.8254 23.5944 17.2523 23.9832 14.6716C24.036 14.2671 24.0959 13.8625 24.1558 13.4578C24.301 12.4762 24.4464 11.4935 24.4918 10.5067C24.3748 9.52204 23.1809 9.73857 22.5165 9.95998C19.1015 11.2594 15.7207 12.6552 12.3532 14.0756C11.9717 14.2446 11.5849 14.4135 11.1956 14.5835Z" fill="#7777A3"/>
</svg>
