<svg width="49" height="48" viewBox="0 0 49 48" fill="none" xmlns="http://www.w3.org/2000/svg">
<path fill-rule="evenodd" clip-rule="evenodd" d="M20.2963 29.2329C25.847 33.6589 34.2229 35.5434 38.2271 33.8609C38.287 33.8256 38.3536 33.7863 38.4229 33.7365C39.594 33.1365 40.6466 32.0463 41.0163 30.1931L41.201 29.2891L40.2768 29.3189C39.7058 29.3392 39.0443 29.4039 38.6345 29.3021C38.4329 29.2492 38.3098 29.1773 38.2226 29.075C38.1355 28.9728 38.05 28.7973 38.0292 28.4121L37.9628 26.6713L36.7767 27.9306C36.4285 28.2985 35.5065 28.4082 34.8095 28.1234C34.4596 27.9863 34.2043 27.7663 34.0897 27.5718C33.9751 27.3774 33.9347 27.2024 34.0864 26.851L34.8272 25.1404L33.1295 25.8971C32.4204 26.2157 31.773 26.0913 31.3653 25.8257C30.9576 25.56 30.813 25.2387 30.9329 24.8789L31.3221 23.6828L30.0914 23.9383C29.5545 24.047 29.1054 23.8328 28.9802 23.6356C28.9249 23.5417 28.8868 23.4467 28.9222 23.2632C29.5529 22.6746 30.3242 22.4007 31.0456 22.5899C31.6994 22.7556 32.2016 23.2728 32.4918 23.9782C32.9667 23.4904 33.5602 23.2039 34.1948 23.2002C35.0273 23.1974 35.7872 23.6801 36.3466 24.4617C36.9592 23.1881 37.9881 22.3468 39.1565 22.3357C40.5401 22.3243 41.747 23.4741 42.3221 25.1499C42.5997 21.9687 41.6335 18.7164 37.9364 16.8569C34.6538 18.3942 31.2845 18.0039 29.054 15.9847C28.0888 15.1081 26.5018 14.896 24.7603 15.0913L24.7615 15.1086C22.3576 15.5497 20.3767 16.1301 18.524 17.0956L18.5386 17.1051C18.3815 17.1886 18.2245 17.2721 18.078 17.3585C18.4043 19.6417 17.3548 21.5109 15.7377 23.0204C15.8387 24.0119 16.8919 26.6426 20.2963 29.2329ZM25.6168 21.3988C24.5068 19.0895 22.9128 18.972 21.0595 20.0734C20.6335 20.3245 20.1952 20.6461 19.7328 21.018C21.5019 22.3153 23.3681 23.0314 25.6168 21.3988ZM27.682 22.4222C27.4178 22.4152 27.1559 22.4883 26.9056 22.6268C26.3452 22.939 25.8616 23.5945 25.644 24.4275C25.2993 25.76 25.7833 27.0378 26.7169 27.2826C26.9821 27.3521 27.265 27.3299 27.535 27.225C27.6781 28.4417 28.299 29.4038 29.2432 29.6514C29.9925 29.8422 30.7865 29.5459 31.4281 28.9148C31.8572 30.5863 32.9803 31.7764 34.2947 31.7696C35.183 31.7701 35.9689 31.2166 36.5093 30.3378C36.9795 31.1811 37.6351 31.8065 38.38 32.0812C38.7651 31.791 39.0802 31.3975 39.3099 30.8284C38.9873 30.8289 38.6355 30.8103 38.2748 30.7157C37.865 30.6139 37.4226 30.3959 37.103 30.006C37.0001 29.8769 36.9171 29.7361 36.8434 29.5808C36.0255 29.8822 35.0726 29.8024 34.2721 29.4791C33.693 29.2422 33.1596 28.8699 32.8343 28.3027C32.6999 28.0748 32.6282 27.8008 32.587 27.5179C31.8392 27.5883 31.1323 27.4086 30.575 27.0414C30.0111 26.6781 29.5996 26.0713 29.4859 25.4066C28.7799 25.3348 28.1281 25.0052 27.7473 24.3894C27.4798 23.9508 27.4001 23.3743 27.5407 22.8216C27.5798 22.6902 27.6256 22.5548 27.682 22.4222Z" fill="#3F3FFF"/>
<path fill-rule="evenodd" clip-rule="evenodd" d="M11.2066 13.1417C10.7446 13.423 10.2663 13.7681 9.75731 14.1676C12.4048 14.4593 14.9453 15.1934 17.0436 16.2425L17.3764 16.0463C18.5971 15.363 19.8541 14.8479 21.2023 14.4418C19.0308 13.1468 17.2279 12.2488 15.5426 12.0677C14.2208 11.9252 12.9093 12.1652 11.3996 13.0279L11.2066 13.1417ZM6.01143 18.2818L5.86499 18.3681C4.94491 18.9375 4.06206 19.7831 3.1817 20.9525C7.66578 20.0081 12.3002 20.1406 15.3991 21.3046C16.4223 20.2407 16.7752 19.1654 16.6905 17.9414C13.212 17.3354 10.4986 16.947 8.3111 17.4052C7.49774 17.5774 6.74367 17.8502 6.01143 18.2818Z" fill="#3F3FFF"/>
</svg>
