<svg width="274" height="267" viewBox="0 0 274 265" fill="none" xmlns="http://www.w3.org/2000/svg">
<path d="M28.5326 74.4821L15.9646 75.4111C7.8235 91.2858 2.71513 108.972 1.4043 127.706L10.6245 135.704C10.5878 136.957 10.5693 138.215 10.5693 139.478C10.5693 169.873 21.2955 197.764 39.1694 219.57L36.8141 229.179C50.5019 244.093 67.4783 255.94 86.5941 263.571L94.7318 258.67C107.949 263.357 122.177 265.909 137 265.909C151.252 265.909 164.953 263.551 177.734 259.203L185.76 264.174C204.99 256.769 222.111 245.116 235.975 230.366L233.767 220.851C252.279 198.861 263.431 170.472 263.431 139.478C263.431 138.721 263.425 137.966 263.411 137.213L272.597 129.443C271.522 110.657 266.63 92.8938 258.686 76.9157L246.274 75.8429C229.42 46.9649 201.447 25.371 168.225 16.9317L162.913 3.93168C154.507 2.30507 145.826 1.45312 136.945 1.45312C128.671 1.45312 120.57 2.19267 112.704 3.60926L107.216 16.5747C73.8888 24.6225 45.712 45.8739 28.5326 74.4821Z" stroke="#5E98D9" stroke-width="2"/>
<path d="M12.8619 81.8808L100.29 81.5953L141.058 1.51434C144.727 1.62339 148.36 1.87791 151.951 2.27233L180.025 87.7256L268.088 101.642C269.092 105.343 269.945 109.106 270.637 112.925L198.834 165.452L212.319 250.402C208.448 252.987 204.437 255.379 200.3 257.564L130.724 207.36L55.1997 245.875C51.2476 242.893 47.4634 239.702 43.8639 236.315L69.8203 155.533L8.15494 93.911C9.53702 89.8099 11.1095 85.7963 12.8619 81.8808Z" stroke="#5E98D9" stroke-width="2"/>
</svg>
